<svg width="120" height="13" viewBox="0 0 120 13" fill="none" xmlns="http://www.w3.org/2000/svg">
<path d="M23.8722 10.1101V8.57895C23.8722 8.57895 25.7977 8.59473 26.1292 8.57895C26.4527 8.55527 26.6343 8.28692 26.3975 7.97123C26.1607 7.66345 24.5903 5.54829 24.2194 5.05897C23.738 4.41178 23.6749 2.49396 25.6162 2.49396H30.4222V4.02507H28.0311C28.0311 4.02507 27.6838 4.23816 27.8574 4.51439C28.0311 4.78274 29.9566 7.34775 30.1855 7.67922C30.4222 8.01069 30.4222 8.61842 30.4222 8.75257C30.4222 8.88676 30.1145 10.1337 28.986 10.1101C27.8574 10.0943 23.8722 10.1101 23.8722 10.1101ZM32.987 2.49396H39.6002V4.02507H36.2147V5.643H39.6002V7.13464H36.2147V8.53949H39.6002V10.1101H32.987V2.49396ZM42.457 10.1101V2.49396H45.9135L49.1017 7.27672V2.49396H50.5774V10.1101H47.1209L43.9327 5.28786V10.1101H42.457ZM53.2606 10.1101V2.49396H56.725L59.9132 7.27672V2.49396H61.3889V10.1101H57.9245L54.7363 5.28786V10.1101H53.2606ZM76.7618 2.49396H83.375V4.02507H79.9895V5.643H83.375V7.13464H79.9895V8.53949H83.375V10.1101H76.7618V2.49396ZM101.281 2.49396H107.886V4.02507H104.509V5.643H107.886V7.13464H104.509V8.53949H107.886V10.1101H101.281V2.49396M92.1978 10.1101V8.57895C92.1978 8.57895 94.1234 8.59473 94.4549 8.57895C94.7863 8.55527 94.9599 8.28692 94.7232 7.97123C94.4943 7.66345 92.9239 5.54829 92.553 5.05897C92.0637 4.41178 92.0084 2.49396 93.9498 2.49396H98.7479V4.02507H96.3567C96.3567 4.02507 96.0095 4.23816 96.1831 4.51439C96.3567 4.78274 98.2823 7.34775 98.519 7.67922C98.7479 8.01069 98.7479 8.61842 98.7479 8.75257C98.7479 8.88676 98.4401 10.1337 97.3116 10.1101C96.1831 10.0943 92.1978 10.1101 92.1978 10.1101ZM64.4193 2.49396H67.5918V5.50094H70.3538V2.49396H73.542V10.1101H70.3538V7.13463H67.5918V10.11H64.4193V2.49396M86.216 2.49396H89.5936V10.1101H86.216V2.49396Z" fill="white"/>
<path d="M113.994 4.02508H116.109C116.109 4.02508 116.749 4.14348 116.749 4.84589C116.749 5.50094 116.109 5.64301 116.109 5.64301H113.994V4.02508ZM110.767 10.1101H113.994V7.13464H115.391L117.041 10.1101H120L118.311 6.92155C118.311 6.92155 119.866 6.40067 119.866 4.70381C119.866 2.50974 117.49 2.49396 117.49 2.49396H110.767V10.1101" fill="white"/>
<path fill-rule="evenodd" clip-rule="evenodd" d="M16.7223 11.2623H9.17795C9.10693 11.3886 8.78336 11.9648 8.27041 12.4225H17.8035V3.03855H16.7223V11.2623ZM1.09693 1.18384H8.23094C8.51505 0.749759 8.68868 0.481441 8.68868 0.481441C8.80704 0.315682 8.97278 0.165733 9.17006 0.0236685H0.0157834V9.37608H1.09692V1.18384M9.20162 0.836588L4.11154 8.66577C3.8511 9.06827 2.9041 9.99169 2.31223 9.99169H0V12.4067H6.94461C7.73379 12.3831 8.53873 11.3807 8.74393 10.9861C8.74393 10.9861 13.3763 3.64625 13.6604 3.22795C14.0629 2.63603 15.1046 2.41505 15.6649 2.41505L17.8035 2.39137V0.0236685C16.4225 0.0236685 10.9457 0 10.9457 0C10.3538 0 9.51729 0.402497 9.20162 0.836588Z" fill="white"/>
</svg>
